<mxfile host="drawio-plugin" modified="2024-07-29T21:15:25.475Z" agent="Mozilla/5.0 (Macintosh; Intel Mac OS X 10_15_7) AppleWebKit/537.36 (KHTML, like Gecko) Chrome/122.0.0.0 Safari/537.36" version="22.1.22" etag="EB0TtLi03Axex2kWtSK4" type="embed">
  <diagram id="LYDQG5cKYdMeNc-Pv3U5" name="Page-1">
    <mxGraphModel dx="3321" dy="1311" grid="1" gridSize="10" guides="1" tooltips="1" connect="1" arrows="1" fold="1" page="1" pageScale="1" pageWidth="850" pageHeight="1100" math="0" shadow="0">
      <root>
        <mxCell id="0" />
        <mxCell id="1" parent="0" />
        <mxCell id="16" value="" style="rounded=0;whiteSpace=wrap;html=1;fontSize=19;" parent="1" vertex="1">
          <mxGeometry x="20" y="510" width="4560" height="1540" as="geometry" />
        </mxCell>
        <mxCell id="22" value="&lt;font style=&quot;font-size: 30px;&quot;&gt;container on EC2: &lt;br&gt;listening at port 7080&lt;/font&gt;" style="text;html=1;strokeColor=none;fillColor=none;align=center;verticalAlign=middle;whiteSpace=wrap;rounded=0;fontSize=19;" parent="1" vertex="1">
          <mxGeometry x="-50" y="440" width="480" height="30" as="geometry" />
        </mxCell>
        <mxCell id="27" value="IoC Container: API Handler Container" style="shape=umlFrame;whiteSpace=wrap;html=1;width=270;height=50;boundedLbl=1;verticalAlign=middle;align=left;spacingLeft=5;fontSize=22;" parent="1" vertex="1">
          <mxGeometry x="90" y="560" width="3890" height="450" as="geometry" />
        </mxCell>
        <mxCell id="126" style="edgeStyle=orthogonalEdgeStyle;rounded=0;orthogonalLoop=1;jettySize=auto;html=1;exitX=0.5;exitY=1;exitDx=0;exitDy=0;exitPerimeter=0;entryX=0.5;entryY=0;entryDx=0;entryDy=0;" edge="1" parent="1" source="28" target="66">
          <mxGeometry relative="1" as="geometry" />
        </mxCell>
        <mxCell id="28" value="Get Nodes List: GET, &quot;/nodes&quot;&lt;br style=&quot;font-size: 22px;&quot;&gt;Get Node Detail: GET, &quot;/nodes/detail&quot;&lt;br&gt;&lt;div style=&quot;&quot;&gt;&lt;span style=&quot;background-color: initial;&quot;&gt;Update Labels: PATCH, &quot;/nodes/updatelabels&quot;&lt;/span&gt;&lt;/div&gt;&lt;div style=&quot;&quot;&gt;&lt;span style=&quot;background-color: initial;&quot;&gt;Update Taints: PATCH, &quot;/nodes/updatetaints&quot;&lt;/span&gt;&lt;/div&gt;&amp;nbsp;" style="shape=note2;boundedLbl=1;whiteSpace=wrap;html=1;size=25;verticalAlign=top;align=center;fontSize=22;" parent="1" vertex="1">
          <mxGeometry x="162" y="645" width="310" height="300" as="geometry" />
        </mxCell>
        <mxCell id="29" value="&lt;&lt;Nodes API Handler&gt;&gt;" style="resizeWidth=1;part=1;strokeColor=none;fillColor=none;align=left;spacingLeft=5;fontSize=21;" parent="28" vertex="1">
          <mxGeometry width="310" height="25" relative="1" as="geometry" />
        </mxCell>
        <mxCell id="128" style="edgeStyle=orthogonalEdgeStyle;rounded=0;orthogonalLoop=1;jettySize=auto;html=1;exitX=0.5;exitY=1;exitDx=0;exitDy=0;exitPerimeter=0;entryX=0.5;entryY=0;entryDx=0;entryDy=0;" edge="1" parent="1" source="30" target="70">
          <mxGeometry relative="1" as="geometry" />
        </mxCell>
        <mxCell id="30" value="&lt;font style=&quot;font-size: 22px;&quot;&gt;Create persistent volume: POST, &quot;/pv&quot;&lt;br&gt;Create persistent volumet claim, POST, &quot;/pv/pvc&quot;&lt;br&gt;Create storage class, POST, &quot;/pv/sc&quot;&lt;br&gt;&lt;br&gt;...&lt;/font&gt;" style="shape=note2;boundedLbl=1;whiteSpace=wrap;html=1;size=25;verticalAlign=top;align=center;fontSize=21;" parent="1" vertex="1">
          <mxGeometry x="922" y="655" width="400" height="290" as="geometry" />
        </mxCell>
        <mxCell id="31" value="&lt;&lt;Persistent Volume API Handler&gt;&gt;" style="resizeWidth=1;part=1;strokeColor=none;fillColor=none;align=left;spacingLeft=5;fontSize=22;" parent="30" vertex="1">
          <mxGeometry width="400" height="25" relative="1" as="geometry" />
        </mxCell>
        <mxCell id="127" style="edgeStyle=orthogonalEdgeStyle;rounded=0;orthogonalLoop=1;jettySize=auto;html=1;exitX=0.5;exitY=1;exitDx=0;exitDy=0;exitPerimeter=0;entryX=0.5;entryY=0;entryDx=0;entryDy=0;" edge="1" parent="1" source="32" target="68">
          <mxGeometry relative="1" as="geometry" />
        </mxCell>
        <mxCell id="32" value="&lt;div style=&quot;&quot;&gt;Get Pods List: GET, &quot;/pods&quot;&lt;/div&gt;&lt;div style=&quot;&quot;&gt;Create a Pod: POST, &quot;/pods&quot;&lt;/div&gt;&lt;div style=&quot;&quot;&gt;Update a Pod: PUT, &quot;/pods&quot;&lt;/div&gt;&lt;div style=&quot;&quot;&gt;Delete a Pod: DELETE, &quot;/pods&quot;&lt;/div&gt;&lt;div style=&quot;&quot;&gt;Get Namespace List:&amp;nbsp; GET, &quot;/pods/namespacelist&quot;&lt;/div&gt;&lt;div style=&quot;&quot;&gt;Get Pods List in a Namespace: GET, &quot;/pods/:namespace&quot;&lt;/div&gt;&lt;div style=&quot;&quot;&gt;...&lt;/div&gt;&lt;div style=&quot;text-align: left;&quot;&gt;&amp;nbsp;&lt;/div&gt;" style="shape=note2;boundedLbl=1;whiteSpace=wrap;html=1;size=25;verticalAlign=top;align=center;fontSize=22;" parent="1" vertex="1">
          <mxGeometry x="495" y="655" width="400" height="290" as="geometry" />
        </mxCell>
        <mxCell id="33" value="&lt;&lt;Pods API Handler&gt;&gt;" style="resizeWidth=1;part=1;strokeColor=none;fillColor=none;align=left;spacingLeft=5;fontSize=22;" parent="32" vertex="1">
          <mxGeometry width="400" height="25" relative="1" as="geometry" />
        </mxCell>
        <mxCell id="129" style="edgeStyle=orthogonalEdgeStyle;rounded=0;orthogonalLoop=1;jettySize=auto;html=1;exitX=0.5;exitY=1;exitDx=0;exitDy=0;exitPerimeter=0;entryX=0.5;entryY=0;entryDx=0;entryDy=0;" edge="1" parent="1" source="95" target="72">
          <mxGeometry relative="1" as="geometry" />
        </mxCell>
        <mxCell id="95" value="&lt;font style=&quot;font-size: 22px;&quot;&gt;Create a Role: POST, &quot;rbac/role&quot;,&lt;br&gt;Create a Service Account: POST, &quot;/rbac/serviceaccount&quot;&lt;br&gt;Create Role Binding: POST, &quot;/rbac/rolebinding&quot;&lt;br&gt;&lt;br&gt;...&lt;/font&gt;" style="shape=note2;boundedLbl=1;whiteSpace=wrap;html=1;size=25;verticalAlign=top;align=center;fontSize=21;" vertex="1" parent="1">
          <mxGeometry x="1357" y="655" width="400" height="290" as="geometry" />
        </mxCell>
        <mxCell id="96" value="&lt;&lt;RBAC API Handler&gt;&gt;" style="resizeWidth=1;part=1;strokeColor=none;fillColor=none;align=left;spacingLeft=5;fontSize=22;" vertex="1" parent="95">
          <mxGeometry width="400" height="25" relative="1" as="geometry" />
        </mxCell>
        <mxCell id="130" style="edgeStyle=orthogonalEdgeStyle;rounded=0;orthogonalLoop=1;jettySize=auto;html=1;exitX=0.5;exitY=1;exitDx=0;exitDy=0;exitPerimeter=0;entryX=0.5;entryY=0;entryDx=0;entryDy=0;" edge="1" parent="1" source="97" target="108">
          <mxGeometry relative="1" as="geometry" />
        </mxCell>
        <mxCell id="97" value="&lt;span style=&quot;font-size: 22px;&quot;&gt;Create StatefulSet: POST, &quot;/workload/statefulset&quot;&lt;br&gt;&lt;/span&gt;..." style="shape=note2;boundedLbl=1;whiteSpace=wrap;html=1;size=25;verticalAlign=top;align=center;fontSize=21;" vertex="1" parent="1">
          <mxGeometry x="1803" y="655" width="400" height="290" as="geometry" />
        </mxCell>
        <mxCell id="98" value="&lt;&lt;Workload API Handler&gt;&gt;" style="resizeWidth=1;part=1;strokeColor=none;fillColor=none;align=left;spacingLeft=5;fontSize=22;" vertex="1" parent="97">
          <mxGeometry width="400" height="25" relative="1" as="geometry" />
        </mxCell>
        <mxCell id="131" style="edgeStyle=orthogonalEdgeStyle;rounded=0;orthogonalLoop=1;jettySize=auto;html=1;exitX=0.5;exitY=1;exitDx=0;exitDy=0;exitPerimeter=0;entryX=0.5;entryY=0;entryDx=0;entryDy=0;" edge="1" parent="1" source="99" target="110">
          <mxGeometry relative="1" as="geometry" />
        </mxCell>
        <mxCell id="99" value="&lt;div style=&quot;border-color: var(--border-color); font-size: 22px;&quot;&gt;Get Secrets List: GET, &quot;/secrets&quot;&lt;/div&gt;&lt;div style=&quot;border-color: var(--border-color); font-size: 22px;&quot;&gt;Get Secret Detail, GET, &quot;/secrets/detail&quot;&lt;/div&gt;&lt;div style=&quot;border-color: var(--border-color); font-size: 22px;&quot;&gt;Create a Secret: POST, &quot;/secrets&quot;&lt;/div&gt;&lt;div style=&quot;border-color: var(--border-color); font-size: 22px;&quot;&gt;Delete a Secret: DELETE, &quot;/secrets&quot;&lt;/div&gt;" style="shape=note2;boundedLbl=1;whiteSpace=wrap;html=1;size=25;verticalAlign=top;align=center;fontSize=21;" vertex="1" parent="1">
          <mxGeometry x="2217" y="655" width="400" height="290" as="geometry" />
        </mxCell>
        <mxCell id="100" value="&lt;&lt;Secrets API Handler&gt;&gt;" style="resizeWidth=1;part=1;strokeColor=none;fillColor=none;align=left;spacingLeft=5;fontSize=22;" vertex="1" parent="99">
          <mxGeometry width="400" height="25" relative="1" as="geometry" />
        </mxCell>
        <mxCell id="132" style="edgeStyle=orthogonalEdgeStyle;rounded=0;orthogonalLoop=1;jettySize=auto;html=1;exitX=0.5;exitY=1;exitDx=0;exitDy=0;exitPerimeter=0;entryX=0.5;entryY=0;entryDx=0;entryDy=0;" edge="1" parent="1" source="101" target="112">
          <mxGeometry relative="1" as="geometry" />
        </mxCell>
        <mxCell id="101" value="&lt;div style=&quot;border-color: var(--border-color); font-size: 22px;&quot;&gt;Get ConfigMaps List: GET, &quot;/configmap&quot;&lt;/div&gt;&lt;div style=&quot;border-color: var(--border-color); font-size: 22px;&quot;&gt;Get ConfigMap Detail, GET, &quot;/configmap/detail&quot;&lt;/div&gt;&lt;div style=&quot;border-color: var(--border-color); font-size: 22px;&quot;&gt;Create a ConfigMap: POST, &quot;/configmap&quot;&lt;/div&gt;&lt;div style=&quot;border-color: var(--border-color); font-size: 22px;&quot;&gt;Delete a ConfigMap: DELETE, &quot;/configmap&quot;&lt;/div&gt;" style="shape=note2;boundedLbl=1;whiteSpace=wrap;html=1;size=25;verticalAlign=top;align=center;fontSize=21;" vertex="1" parent="1">
          <mxGeometry x="2670" y="655" width="400" height="290" as="geometry" />
        </mxCell>
        <mxCell id="102" value="&lt;&lt;ConfigMaps API Handler&gt;&gt;" style="resizeWidth=1;part=1;strokeColor=none;fillColor=none;align=left;spacingLeft=5;fontSize=22;" vertex="1" parent="101">
          <mxGeometry width="400" height="25" relative="1" as="geometry" />
        </mxCell>
        <mxCell id="134" style="edgeStyle=orthogonalEdgeStyle;rounded=0;orthogonalLoop=1;jettySize=auto;html=1;exitX=0.5;exitY=1;exitDx=0;exitDy=0;exitPerimeter=0;entryX=0.5;entryY=0;entryDx=0;entryDy=0;" edge="1" parent="1" source="103" target="114">
          <mxGeometry relative="1" as="geometry" />
        </mxCell>
        <mxCell id="103" value="&lt;div style=&quot;border-color: var(--border-color); font-size: 22px;&quot;&gt;Get Services List: GET, &quot;/k8sserrvice&quot;&lt;/div&gt;&lt;div style=&quot;border-color: var(--border-color); font-size: 22px;&quot;&gt;Get Service Detail, GET, &quot;/k8sservice/detail&quot;&lt;/div&gt;&lt;div style=&quot;border-color: var(--border-color); font-size: 22px;&quot;&gt;Create a Service: POST, &quot;/k8sservice&quot;&lt;/div&gt;&lt;div style=&quot;border-color: var(--border-color); font-size: 22px;&quot;&gt;Delete a Service: DELETE, &quot;/k8sservice&quot;&lt;/div&gt;" style="shape=note2;boundedLbl=1;whiteSpace=wrap;html=1;size=25;verticalAlign=top;align=center;fontSize=21;" vertex="1" parent="1">
          <mxGeometry x="3087" y="655" width="400" height="290" as="geometry" />
        </mxCell>
        <mxCell id="104" value="&lt;&lt;Service API Handler&gt;&gt;" style="resizeWidth=1;part=1;strokeColor=none;fillColor=none;align=left;spacingLeft=5;fontSize=22;" vertex="1" parent="103">
          <mxGeometry width="400" height="25" relative="1" as="geometry" />
        </mxCell>
        <mxCell id="135" style="edgeStyle=orthogonalEdgeStyle;rounded=0;orthogonalLoop=1;jettySize=auto;html=1;exitX=0.5;exitY=1;exitDx=0;exitDy=0;exitPerimeter=0;entryX=0.5;entryY=0;entryDx=0;entryDy=0;" edge="1" parent="1" source="105" target="116">
          <mxGeometry relative="1" as="geometry" />
        </mxCell>
        <mxCell id="105" value="&lt;div style=&quot;border-color: var(--border-color); font-size: 22px;&quot;&gt;Get the Basic Metrics of the Cluster: GET, &quot;/metrics/dashboard&quot;&lt;/div&gt;&lt;div style=&quot;border-color: var(--border-color); font-size: 22px;&quot;&gt;Get the data collected by Prometheus: GET, &quot;/metrics/dashboard&quot;&lt;/div&gt;" style="shape=note2;boundedLbl=1;whiteSpace=wrap;html=1;size=25;verticalAlign=top;align=center;fontSize=21;" vertex="1" parent="1">
          <mxGeometry x="3566" y="655" width="400" height="290" as="geometry" />
        </mxCell>
        <mxCell id="106" value="&lt;&lt;Metrics API Handler&gt;&gt;" style="resizeWidth=1;part=1;strokeColor=none;fillColor=none;align=left;spacingLeft=5;fontSize=22;" vertex="1" parent="105">
          <mxGeometry width="400" height="25" relative="1" as="geometry" />
        </mxCell>
        <mxCell id="118" value="" style="group" vertex="1" connectable="0" parent="1">
          <mxGeometry x="90" y="1350" width="3890" height="440" as="geometry" />
        </mxCell>
        <mxCell id="43" value="IoC Container: Service Container" style="shape=umlFrame;whiteSpace=wrap;html=1;width=360;height=38;boundedLbl=1;verticalAlign=middle;align=left;spacingLeft=5;fontSize=22;" parent="118" vertex="1">
          <mxGeometry width="3890" height="440" as="geometry" />
        </mxCell>
        <mxCell id="65" value="GetNodes,&lt;br&gt;UpdateLabels,&lt;br&gt;UpdateTaints&lt;br&gt;" style="shape=note2;boundedLbl=1;whiteSpace=wrap;html=1;size=25;verticalAlign=top;align=center;fontSize=22;" parent="118" vertex="1">
          <mxGeometry x="130" y="100" width="190" height="300" as="geometry" />
        </mxCell>
        <mxCell id="66" value="&lt;&lt;Nodes Service&gt;&gt;" style="resizeWidth=1;part=1;strokeColor=none;fillColor=none;align=left;spacingLeft=5;fontSize=19;" parent="65" vertex="1">
          <mxGeometry width="190" height="25" relative="1" as="geometry" />
        </mxCell>
        <mxCell id="67" value="GetPods,&lt;br&gt;CreatePod,&lt;br&gt;DeletePod,&lt;br&gt;GetNamespace&lt;br&gt;..." style="shape=note2;boundedLbl=1;whiteSpace=wrap;html=1;size=25;verticalAlign=top;align=center;fontSize=22;" parent="118" vertex="1">
          <mxGeometry x="510" y="100" width="190" height="300" as="geometry" />
        </mxCell>
        <mxCell id="68" value="&lt;&lt;Pods Service&gt;&gt;" style="resizeWidth=1;part=1;strokeColor=none;fillColor=none;align=left;spacingLeft=5;fontSize=19;" parent="67" vertex="1">
          <mxGeometry width="190" height="25" relative="1" as="geometry" />
        </mxCell>
        <mxCell id="69" value="CreatePV,&lt;br&gt;CreatePVC,&lt;br&gt;CreateSC,&lt;br&gt;..." style="shape=note2;boundedLbl=1;whiteSpace=wrap;html=1;size=25;verticalAlign=top;align=center;fontSize=22;" parent="118" vertex="1">
          <mxGeometry x="930" y="100" width="200" height="300" as="geometry" />
        </mxCell>
        <mxCell id="70" value="&lt;&lt;PV Service&gt;&gt;" style="resizeWidth=1;part=1;strokeColor=none;fillColor=none;align=left;spacingLeft=5;fontSize=19;" parent="69" vertex="1">
          <mxGeometry width="200" height="25" relative="1" as="geometry" />
        </mxCell>
        <mxCell id="71" value="CreateRole,&lt;br&gt;CreateServiceAccount,&lt;br&gt;CreateRoleBinding&lt;br&gt;..." style="shape=note2;boundedLbl=1;whiteSpace=wrap;html=1;size=25;verticalAlign=top;align=center;fontSize=22;" parent="118" vertex="1">
          <mxGeometry x="1350" y="100" width="230" height="300" as="geometry" />
        </mxCell>
        <mxCell id="72" value="&lt;&lt;RBAC Service&gt;&gt;" style="resizeWidth=1;part=1;strokeColor=none;fillColor=none;align=left;spacingLeft=5;fontSize=19;" parent="71" vertex="1">
          <mxGeometry width="230.00000000000003" height="25" relative="1" as="geometry" />
        </mxCell>
        <mxCell id="107" value="CreateStatefulSet,&lt;br&gt;UpdateStatefulSet,&lt;br&gt;DeleteStatefulSet,&lt;br&gt;GetStatefulSet,&lt;br&gt;..." style="shape=note2;boundedLbl=1;whiteSpace=wrap;html=1;size=25;verticalAlign=top;align=center;fontSize=22;" vertex="1" parent="118">
          <mxGeometry x="1800" y="100" width="230" height="300" as="geometry" />
        </mxCell>
        <mxCell id="108" value="&lt;&lt;Workload Service&gt;&gt;" style="resizeWidth=1;part=1;strokeColor=none;fillColor=none;align=left;spacingLeft=5;fontSize=19;" vertex="1" parent="107">
          <mxGeometry width="230.00000000000003" height="25" relative="1" as="geometry" />
        </mxCell>
        <mxCell id="109" value="CreateSecret,&lt;br&gt;GetSecret,&lt;br&gt;DeleteSecret,&lt;br&gt;..." style="shape=note2;boundedLbl=1;whiteSpace=wrap;html=1;size=25;verticalAlign=top;align=center;fontSize=22;" vertex="1" parent="118">
          <mxGeometry x="2210" y="100" width="230" height="300" as="geometry" />
        </mxCell>
        <mxCell id="110" value="&lt;&lt;Secrets Service&gt;&gt;" style="resizeWidth=1;part=1;strokeColor=none;fillColor=none;align=left;spacingLeft=5;fontSize=19;" vertex="1" parent="109">
          <mxGeometry width="230.00000000000003" height="25" relative="1" as="geometry" />
        </mxCell>
        <mxCell id="111" value="CreateConfigMap,&lt;br&gt;GetConfigMap,&lt;br&gt;DeleteConfigMap&lt;br&gt;..." style="shape=note2;boundedLbl=1;whiteSpace=wrap;html=1;size=25;verticalAlign=top;align=center;fontSize=22;" vertex="1" parent="118">
          <mxGeometry x="2665" y="100" width="230" height="300" as="geometry" />
        </mxCell>
        <mxCell id="112" value="&lt;&lt;ConfigMap Service&gt;&gt;" style="resizeWidth=1;part=1;strokeColor=none;fillColor=none;align=left;spacingLeft=5;fontSize=19;" vertex="1" parent="111">
          <mxGeometry width="230.00000000000003" height="25" relative="1" as="geometry" />
        </mxCell>
        <mxCell id="113" value="GetService,&lt;br&gt;CreateService,&lt;br&gt;DeleteService,&lt;br&gt;..." style="shape=note2;boundedLbl=1;whiteSpace=wrap;html=1;size=25;verticalAlign=top;align=center;fontSize=22;" vertex="1" parent="118">
          <mxGeometry x="3080" y="100" width="230" height="300" as="geometry" />
        </mxCell>
        <mxCell id="114" value="&lt;&lt;k8sservice Service&gt;&gt;" style="resizeWidth=1;part=1;strokeColor=none;fillColor=none;align=left;spacingLeft=5;fontSize=19;" vertex="1" parent="113">
          <mxGeometry width="230.00000000000003" height="25" relative="1" as="geometry" />
        </mxCell>
        <mxCell id="115" value="GetClusterInfo,&lt;br&gt;GetClusterUsageInfo&lt;br&gt;GetResourceInfo,&lt;br&gt;GetClusterUsageTrends&lt;br&gt;&lt;br&gt;GetDataFromPrometheus" style="shape=note2;boundedLbl=1;whiteSpace=wrap;html=1;size=25;verticalAlign=top;align=center;fontSize=22;" vertex="1" parent="118">
          <mxGeometry x="3545" y="100" width="265" height="300" as="geometry" />
        </mxCell>
        <mxCell id="116" value="&lt;&lt;Metrics Service&gt;&gt;" style="resizeWidth=1;part=1;strokeColor=none;fillColor=none;align=left;spacingLeft=5;fontSize=19;" vertex="1" parent="115">
          <mxGeometry width="265.00000000000006" height="25" relative="1" as="geometry" />
        </mxCell>
        <mxCell id="125" value="" style="edgeStyle=orthogonalEdgeStyle;rounded=0;orthogonalLoop=1;jettySize=auto;html=1;" edge="1" parent="1" source="119" target="121">
          <mxGeometry relative="1" as="geometry" />
        </mxCell>
        <mxCell id="119" value="&lt;span style=&quot;font-size: 22px;&quot;&gt;Prometheus Exporter&lt;/span&gt;" style="rounded=0;whiteSpace=wrap;html=1;" vertex="1" parent="1">
          <mxGeometry x="4030" y="1470" width="270" height="110" as="geometry" />
        </mxCell>
        <mxCell id="121" value="&lt;font style=&quot;font-size: 22px;&quot;&gt;Prometheus Client&lt;/font&gt;" style="rounded=0;whiteSpace=wrap;html=1;" vertex="1" parent="1">
          <mxGeometry x="4030" y="1650" width="270" height="90" as="geometry" />
        </mxCell>
        <mxCell id="122" style="edgeStyle=orthogonalEdgeStyle;rounded=0;orthogonalLoop=1;jettySize=auto;html=1;exitX=0;exitY=0.5;exitDx=0;exitDy=0;entryX=1;entryY=0.233;entryDx=0;entryDy=0;entryPerimeter=0;" edge="1" parent="1" source="119" target="115">
          <mxGeometry relative="1" as="geometry" />
        </mxCell>
        <mxCell id="124" style="edgeStyle=orthogonalEdgeStyle;rounded=0;orthogonalLoop=1;jettySize=auto;html=1;exitX=0;exitY=0;exitDx=265;exitDy=162.5;exitPerimeter=0;entryX=0;entryY=0.5;entryDx=0;entryDy=0;" edge="1" parent="1" source="115" target="121">
          <mxGeometry relative="1" as="geometry" />
        </mxCell>
        <mxCell id="136" value="&lt;font style=&quot;font-size: 22px;&quot;&gt;.env&lt;/font&gt;" style="whiteSpace=wrap;html=1;aspect=fixed;" vertex="1" parent="1">
          <mxGeometry x="4130" y="780" width="130" height="130" as="geometry" />
        </mxCell>
        <mxCell id="137" value="&lt;span style=&quot;font-size: 22px;&quot;&gt;.kube/config&lt;/span&gt;" style="whiteSpace=wrap;html=1;aspect=fixed;" vertex="1" parent="1">
          <mxGeometry x="4130" y="930" width="130" height="130" as="geometry" />
        </mxCell>
        <mxCell id="138" value="&lt;span style=&quot;font-size: 22px;&quot;&gt;response&lt;/span&gt;" style="whiteSpace=wrap;html=1;aspect=fixed;" vertex="1" parent="1">
          <mxGeometry x="4130" y="1080" width="130" height="130" as="geometry" />
        </mxCell>
        <mxCell id="139" value="&lt;span style=&quot;font-size: 22px;&quot;&gt;exception&lt;/span&gt;" style="whiteSpace=wrap;html=1;aspect=fixed;" vertex="1" parent="1">
          <mxGeometry x="4130" y="1230" width="130" height="130" as="geometry" />
        </mxCell>
        <mxCell id="140" value="&lt;span style=&quot;font-size: 22px;&quot;&gt;middleware&lt;/span&gt;" style="whiteSpace=wrap;html=1;aspect=fixed;" vertex="1" parent="1">
          <mxGeometry x="4130" y="630" width="130" height="130" as="geometry" />
        </mxCell>
        <mxCell id="141" value="&lt;font style=&quot;font-size: 36px;&quot;&gt;.kube/config&lt;/font&gt;" style="rounded=0;whiteSpace=wrap;html=1;" vertex="1" parent="1">
          <mxGeometry x="90" y="1860" width="3890" height="110" as="geometry" />
        </mxCell>
        <mxCell id="142" style="edgeStyle=orthogonalEdgeStyle;rounded=0;orthogonalLoop=1;jettySize=auto;html=1;exitX=0.5;exitY=1;exitDx=0;exitDy=0;exitPerimeter=0;entryX=0.058;entryY=-0.039;entryDx=0;entryDy=0;entryPerimeter=0;" edge="1" parent="1" source="65" target="141">
          <mxGeometry relative="1" as="geometry" />
        </mxCell>
        <mxCell id="143" style="edgeStyle=orthogonalEdgeStyle;rounded=0;orthogonalLoop=1;jettySize=auto;html=1;exitX=0.5;exitY=1;exitDx=0;exitDy=0;exitPerimeter=0;entryX=0.155;entryY=0.001;entryDx=0;entryDy=0;entryPerimeter=0;" edge="1" parent="1" source="67" target="141">
          <mxGeometry relative="1" as="geometry" />
        </mxCell>
        <mxCell id="144" style="edgeStyle=orthogonalEdgeStyle;rounded=0;orthogonalLoop=1;jettySize=auto;html=1;exitX=0.5;exitY=1;exitDx=0;exitDy=0;exitPerimeter=0;entryX=0.265;entryY=0.001;entryDx=0;entryDy=0;entryPerimeter=0;" edge="1" parent="1" source="69" target="141">
          <mxGeometry relative="1" as="geometry" />
        </mxCell>
        <mxCell id="145" style="edgeStyle=orthogonalEdgeStyle;rounded=0;orthogonalLoop=1;jettySize=auto;html=1;exitX=0.5;exitY=1;exitDx=0;exitDy=0;exitPerimeter=0;entryX=0.377;entryY=0.001;entryDx=0;entryDy=0;entryPerimeter=0;" edge="1" parent="1" source="71" target="141">
          <mxGeometry relative="1" as="geometry" />
        </mxCell>
        <mxCell id="146" style="edgeStyle=orthogonalEdgeStyle;rounded=0;orthogonalLoop=1;jettySize=auto;html=1;exitX=0.5;exitY=1;exitDx=0;exitDy=0;exitPerimeter=0;" edge="1" parent="1" source="107" target="141">
          <mxGeometry relative="1" as="geometry" />
        </mxCell>
        <mxCell id="147" style="edgeStyle=orthogonalEdgeStyle;rounded=0;orthogonalLoop=1;jettySize=auto;html=1;exitX=0.5;exitY=1;exitDx=0;exitDy=0;exitPerimeter=0;entryX=0.598;entryY=0.021;entryDx=0;entryDy=0;entryPerimeter=0;" edge="1" parent="1" source="109" target="141">
          <mxGeometry relative="1" as="geometry" />
        </mxCell>
        <mxCell id="148" style="edgeStyle=orthogonalEdgeStyle;rounded=0;orthogonalLoop=1;jettySize=auto;html=1;exitX=0.5;exitY=1;exitDx=0;exitDy=0;exitPerimeter=0;entryX=0.715;entryY=0.021;entryDx=0;entryDy=0;entryPerimeter=0;" edge="1" parent="1" source="111" target="141">
          <mxGeometry relative="1" as="geometry" />
        </mxCell>
        <mxCell id="149" style="edgeStyle=orthogonalEdgeStyle;rounded=0;orthogonalLoop=1;jettySize=auto;html=1;exitX=0.5;exitY=1;exitDx=0;exitDy=0;exitPerimeter=0;entryX=0.821;entryY=-0.019;entryDx=0;entryDy=0;entryPerimeter=0;" edge="1" parent="1" source="113" target="141">
          <mxGeometry relative="1" as="geometry" />
        </mxCell>
        <mxCell id="150" style="edgeStyle=orthogonalEdgeStyle;rounded=0;orthogonalLoop=1;jettySize=auto;html=1;exitX=0.5;exitY=1;exitDx=0;exitDy=0;exitPerimeter=0;entryX=0.945;entryY=0.021;entryDx=0;entryDy=0;entryPerimeter=0;" edge="1" parent="1" source="115" target="141">
          <mxGeometry relative="1" as="geometry" />
        </mxCell>
      </root>
    </mxGraphModel>
  </diagram>
</mxfile>
